{"title":"The.Avengers.2012.DVDRip.XviD-NYDIC Greek Subtitles","uid":7544959,"size":1215299397,"categoryP":"video","categoryS":"movies","magnet":"?xt=urn:btih:acca01ba927446a302a225ca3f7673d4b770835d&amp;dn=The.Avengers.2012.DVDRip.XviD-NYDIC+Greek+Subtitles&amp;tr=udp%3A%2F%2Ftracker.openbittorrent.com%3A80&amp;tr=udp%3A%2F%2Fopen.demonii.com%3A1337&amp;tr=udp%3A%2F%2Ftracker.coppersurfer.tk%3A6969&amp;tr=udp%3A%2F%2Fexodus.desync.com%3A6969","seeders":0,"leechers":0,"uploader":"ontotita","files":2,"time":1345319526,"description":"The.Avengers.2012.DVDRip.XviD.AC3-NYDIC WITH GREEK SUBTITLES IN SEPARATE SRT FILE\n\nPlot: Nick Fury of S.H.I.E.L.D. brings together a team of super humans to form \nThe Avengers to help save the Earth from Loki and his army.\n\nDirector: Joss Whedon\nWriters: Zak Penn (story), Joss Whedon (story)\nStars:Robert Downey Jr., Chris Evans and Scarlett Johansson\nGenres:Action | Adventure | Sci-Fi\nCountry:USA\nLanguage:English\n\nFormat : AVI\nFormat/Info : Audio Video Interleave\nFile size : 2.16 GiB\nDuration : 2h 17mn\nOverall bit rate : 2 252 Kbps\n\nVideo\nID : 0\nFormat : MPEG-4 Visual\nFormat profile : Simple@L3\nFormat settings, BVOP : No\nFormat settings, QPel : No\nFormat settings, GMC : No warppoints\nFormat settings, Matrix : Default (H.263)\nCodec ID : XVID\nCodec ID/Hint : XviD\nDuration : 2h 17mn\nSource duration : 2h 17mn\nBit rate : 1 857 Kbps\nWidth : 720 pixels\nHeight : 384 pixels\nDisplay aspect ratio : 1.85:1\nFrame rate : 25.000 fps\nColor space : YUV\nChroma subsampling : 4:2:0\nBit depth : 8 bits\nScan type : Progressive\nCompression mode : Lossy\nBits/(Pixel*Frame) : 0.269\nStream size : 1.78 GiB (82%)\nWriting library : XviD 1.1.2 (UTC 2006-11-01)\n\nAudio\nID : 1\nFormat : AC-3\nFormat/Info : Audio Coding 3\nMode extension : CM (complete main)\nFormat settings, Endianness : Big\nCodec ID : 2000\nDuration : 2h 17mn\nBit rate mode : Constant\nBit rate : 384 Kbps\nChannel(s) : 6 channels\nChannel positions : Front: L C R, Side: L R, LFE\nSampling rate : 48.0 KHz\nBit depth : 16 bits\nCompression mode : Lossy\nStream size : 376 MiB (17%)\nAlignment : Aligned on interleaves\nInterleave, duration : 32 ms (0.80 video frame)\nInterleave, preload duration : 32 ms","torrent":{"xt":"urn:btih:acca01ba927446a302a225ca3f7673d4b770835d","amp;dn":"The.Avengers.2012.DVDRip.XviD-NYDIC+Greek+Subtitles","amp;tr":["udp%3A%2F%2Ftracker.openbittorrent.com%3A80","udp%3A%2F%2Fopen.demonii.com%3A1337","udp%3A%2F%2Ftracker.coppersurfer.tk%3A6969","udp%3A%2F%2Fexodus.desync.com%3A6969"],"infoHash":"acca01ba927446a302a225ca3f7673d4b770835d","infoHashBuffer":{"type":"Buffer","data":[172,202,1,186,146,116,70,163,2,162,37,202,63,118,115,212,183,112,131,93]},"announce":[],"urlList":[]}}